<svg width="224" height="251" viewBox="0 0 224 251" fill="none" xmlns="http://www.w3.org/2000/svg">
<g clip-path="url(#clip0_4_162)">
<path d="M2.12655 209.466C0.799107 211.065 0 213.123 0 215.367C0 220.465 4.12139 224.597 9.20558 224.597H214.794C219.879 224.597 224 220.465 224 215.367V9.23151C224 4.13441 219.879 0.0020752 214.794 0.0020752C212.583 0.0020752 210.554 0.783891 208.967 2.08604L2.12655 209.466Z" fill="#FFED00"/>
<path d="M104.263 161.624C103.463 161.964 102.653 162.133 101.836 162.133C100.547 162.133 99.3894 161.908 98.3603 161.46C97.3303 161.011 96.4625 160.394 95.7561 159.607C95.0482 158.819 94.5067 157.895 94.1292 156.832C93.7513 155.769 93.5636 154.625 93.5636 153.398C93.5636 152.137 93.7525 150.969 94.13 149.891C94.5076 148.814 95.0512 147.872 95.7588 147.069C96.4678 146.266 97.3364 145.636 98.3653 145.18C99.3952 144.724 100.554 144.495 101.843 144.495C102.706 144.495 103.544 144.625 104.352 144.885C105.161 145.144 105.892 145.525 106.544 146.029C107.196 146.532 107.735 147.153 108.158 147.893C108.583 148.632 108.842 149.482 108.936 150.444H105.402C105.182 149.499 104.757 148.79 104.128 148.317C103.5 147.844 102.738 147.609 101.843 147.609C101.009 147.609 100.303 147.77 99.7206 148.092C99.1403 148.415 98.6689 148.848 98.3072 149.391C97.9463 149.933 97.6823 150.552 97.5171 151.244C97.3523 151.937 97.2701 152.654 97.2701 153.393C97.2701 154.1 97.3523 154.79 97.5171 155.459C97.6823 156.127 97.9455 156.73 98.306 157.265C98.6668 157.8 99.1382 158.229 99.7194 158.552C100.3 158.875 101.006 159.036 101.839 159.036C103.062 159.036 104.008 158.726 104.675 158.107C105.343 157.487 105.732 156.589 105.842 155.413H102.118V152.641H109.193V161.754H106.833L106.455 159.84C105.795 160.691 105.065 161.286 104.263 161.624ZM120.317 155.242L118.196 149.043H118.148L115.956 155.242H120.317ZM120.105 144.883L126.397 161.761H122.556L121.282 158.014H114.99L113.671 161.761H109.947L116.311 144.883H120.105ZM130.225 157.607C130.43 158 130.7 158.319 131.038 158.563C131.376 158.807 131.772 158.988 132.228 159.106C132.683 159.224 133.154 159.284 133.641 159.284C133.971 159.284 134.324 159.257 134.701 159.202C135.078 159.146 135.43 159.04 135.761 158.882C136.091 158.725 136.366 158.509 136.585 158.232C136.805 157.957 136.915 157.607 136.915 157.182C136.915 156.725 136.771 156.355 136.479 156.071C136.19 155.788 135.808 155.551 135.339 155.362C134.867 155.174 134.332 155.008 133.736 154.867C133.139 154.724 132.536 154.566 131.924 154.393C131.3 154.238 130.686 154.045 130.086 153.815C129.49 153.587 128.956 153.291 128.485 152.929C128.013 152.568 127.634 152.115 127.343 151.571C127.053 151.028 126.908 150.37 126.908 149.598C126.908 148.732 127.092 147.98 127.461 147.342C127.83 146.705 128.312 146.172 128.909 145.748C129.505 145.322 130.18 145.008 130.934 144.804C131.687 144.599 132.441 144.495 133.194 144.495C134.073 144.495 134.916 144.594 135.724 144.791C136.534 144.987 137.251 145.306 137.879 145.747C138.506 146.187 139.006 146.75 139.374 147.436C139.743 148.12 139.927 148.951 139.927 149.928H136.344C136.313 149.424 136.208 149.007 136.027 148.676C135.846 148.345 135.607 148.084 135.309 147.896C135.012 147.706 134.671 147.573 134.287 147.493C133.903 147.415 133.484 147.376 133.03 147.376C132.732 147.376 132.434 147.408 132.136 147.471C131.839 147.534 131.568 147.644 131.325 147.802C131.083 147.958 130.883 148.155 130.727 148.392C130.569 148.628 130.491 148.928 130.491 149.29C130.491 149.621 130.554 149.889 130.679 150.094C130.805 150.299 131.052 150.488 131.421 150.662C131.79 150.835 132.299 151.008 132.952 151.181C133.603 151.355 134.454 151.576 135.506 151.843C135.82 151.906 136.255 152.021 136.813 152.186C137.371 152.351 137.924 152.615 138.474 152.978C139.023 153.341 139.498 153.824 139.898 154.431C140.298 155.038 140.498 155.814 140.498 156.759C140.498 157.532 140.349 158.248 140.051 158.91C139.752 159.572 139.308 160.143 138.72 160.625C138.13 161.104 137.401 161.479 136.528 161.746C135.656 162.014 134.647 162.149 133.5 162.149C132.573 162.149 131.674 162.034 130.802 161.805C129.93 161.576 129.16 161.217 128.493 160.728C127.825 160.239 127.295 159.615 126.902 158.859C126.509 158.103 126.321 157.204 126.336 156.165H129.919C129.919 156.732 130.022 157.213 130.225 157.607ZM62.3019 201.367C62.8557 202.324 63.57 203.105 64.4445 203.713C65.3191 204.32 66.325 204.769 67.4617 205.059C68.5991 205.348 69.7798 205.493 71.004 205.493C71.8788 205.493 72.7973 205.391 73.759 205.186C74.7209 204.983 75.5954 204.663 76.383 204.226C77.171 203.788 77.8264 203.205 78.3509 202.477C78.8757 201.75 79.1389 200.831 79.1389 199.724C79.1389 197.86 77.9024 196.463 75.4305 195.529C72.9584 194.597 69.5123 193.665 65.0923 192.732C63.2893 192.324 61.5297 191.842 59.8133 191.289C58.0972 190.735 56.5714 190.007 55.2334 189.105C53.8957 188.202 52.8191 187.066 52.0044 185.696C51.1898 184.326 50.7837 182.651 50.7837 180.67C50.7837 177.758 51.3493 175.367 52.4823 173.503C53.6155 171.639 55.1119 170.167 56.9707 169.089C58.83 168.012 60.9204 167.255 63.245 166.818C65.5681 166.38 67.9502 166.161 70.3906 166.161C72.8299 166.161 75.1958 166.394 77.4919 166.86C79.786 167.327 81.8331 168.115 83.6352 169.222C85.4358 170.33 86.9325 171.803 88.1235 173.639C89.3146 175.476 90.0254 177.794 90.2583 180.593H78.521C78.345 178.199 77.4427 176.578 75.8119 175.732C74.1799 174.885 72.2573 174.461 70.043 174.461C69.3442 174.461 68.5868 174.505 67.7709 174.592C66.9542 174.68 66.212 174.87 65.5423 175.16C64.8726 175.452 64.3037 175.876 63.8376 176.43C63.3712 176.982 63.1388 177.726 63.1388 178.659C63.1388 179.767 63.5448 180.671 64.3598 181.371C65.1741 182.071 66.2352 182.638 67.5442 183.077C68.8528 183.514 70.3498 183.907 72.0372 184.257C73.7243 184.608 75.4402 184.986 77.1845 185.393C78.9875 185.802 80.7467 186.298 82.4629 186.881C84.1787 187.464 85.7057 188.236 87.0443 189.198C88.3814 190.159 89.4568 191.356 90.2712 192.785C91.0867 194.213 91.4939 195.977 91.4939 198.076C91.4939 201.05 90.8969 203.542 89.7059 205.553C88.5149 207.565 86.9601 209.183 85.0418 210.407C83.1241 211.632 80.9298 212.491 78.4597 212.987C75.9888 213.482 73.4753 213.73 70.9181 213.73C68.3031 213.73 65.7459 213.469 63.2468 212.945C60.7468 212.422 58.5237 211.549 56.5773 210.328C54.6291 209.106 53.0306 207.492 51.7817 205.485C50.5329 203.478 49.8491 200.962 49.7335 197.936H61.4708C61.4708 199.268 61.7477 200.412 62.3019 201.367ZM123.094 191.553C122.306 191.816 121.461 192.034 120.558 192.209C119.653 192.383 118.707 192.53 117.714 192.646C116.724 192.762 115.731 192.909 114.741 193.082C113.808 193.258 112.89 193.491 111.986 193.782C111.083 194.073 110.295 194.466 109.625 194.962C108.954 195.458 108.413 196.084 108.006 196.84C107.597 197.598 107.394 198.56 107.394 199.725C107.394 200.832 107.597 201.764 108.006 202.522C108.413 203.28 108.968 203.877 109.667 204.313C110.366 204.752 111.183 205.057 112.117 205.231C113.05 205.406 114.012 205.493 115.003 205.493C117.451 205.493 119.347 205.085 120.688 204.27C122.029 203.454 123.021 202.478 123.662 201.341C124.303 200.206 124.696 199.055 124.843 197.889C124.988 196.724 125.061 195.792 125.061 195.093V190.46C124.536 190.927 123.88 191.292 123.094 191.553ZM98.6381 174.023C99.9159 172.102 101.543 170.559 103.517 169.393C105.493 168.229 107.714 167.4 110.184 166.904C112.654 166.408 115.136 166.161 117.635 166.161C119.9 166.161 122.195 166.322 124.518 166.642C126.843 166.963 128.964 167.59 130.882 168.522C132.798 169.456 134.366 170.752 135.587 172.413C136.806 174.075 137.416 176.275 137.416 179.014V202.537C137.416 204.576 137.532 206.529 137.766 208.394C137.997 210.26 138.405 211.659 138.986 212.592L126.428 212.554C126.194 211.857 126.004 211.146 125.861 210.425C125.715 209.702 125.614 208.962 125.555 208.209C123.578 210.255 121.255 211.686 118.581 212.503C115.907 213.321 113.173 213.73 110.384 213.73C108.234 213.73 106.228 213.468 104.368 212.944C102.509 212.419 100.881 211.602 99.4862 210.494C98.0901 209.387 97 207.987 96.2152 206.297C95.4305 204.606 95.0392 202.594 95.0392 200.262C95.0392 197.697 95.4898 195.583 96.3912 193.922C97.2924 192.259 98.4571 190.933 99.8822 189.942C101.307 188.951 102.936 188.207 104.769 187.712C106.594 187.218 108.445 186.824 110.312 186.53C112.173 186.239 114.008 186.006 115.81 185.83C117.613 185.656 119.214 185.395 120.611 185.043C122.007 184.695 123.113 184.185 123.928 183.514C124.743 182.843 125.12 181.866 125.061 180.583C125.061 179.242 124.843 178.178 124.407 177.39C123.971 176.604 123.388 175.992 122.66 175.555C121.932 175.117 121.087 174.826 120.127 174.68C119.165 174.535 118.13 174.461 117.024 174.461C114.579 174.461 112.658 174.986 111.26 176.033C109.862 177.082 109.047 178.829 108.816 181.274H96.4596C96.6333 178.363 97.3599 175.945 98.6381 174.023ZM140.547 175.699V167.4H147.956V163.903C147.956 159.882 149.203 156.591 151.697 154.026C154.192 151.462 157.962 150.18 163.013 150.18C164.117 150.18 165.221 150.227 166.325 150.32C167.429 150.413 168.504 150.49 169.551 150.552V159.781C168.098 159.617 166.587 159.534 165.018 159.534C163.332 159.534 162.127 159.927 161.401 160.713C160.674 161.5 160.311 162.826 160.311 164.69V167.4H168.854V175.699H160.311V212.554H147.956V175.699H140.547ZM199.75 177.958C198.269 176.329 196.016 175.514 192.996 175.514C191.02 175.514 189.378 175.849 188.07 176.518C186.763 177.187 185.716 178.015 184.932 179.004C184.147 179.994 183.596 181.042 183.277 182.147C182.955 183.253 182.768 184.242 182.709 185.114H202.845C202.264 181.973 201.232 179.587 199.75 177.958ZM185.76 201.728C187.619 203.535 190.292 204.439 193.781 204.439C196.278 204.439 198.429 203.817 200.23 202.572C202.031 201.326 203.135 200.008 203.543 198.617H214.438C212.695 204.034 210.021 207.907 206.419 210.237C202.815 212.566 198.458 213.73 193.343 213.73C189.799 213.73 186.604 213.162 183.759 212.025C180.913 210.889 178.505 209.27 176.531 207.173C174.559 205.074 173.037 202.568 171.963 199.652C170.89 196.738 170.354 193.532 170.354 190.032C170.354 186.652 170.905 183.505 172.007 180.59C173.11 177.675 174.675 175.154 176.706 173.025C178.736 170.899 181.159 169.222 183.977 167.998C186.792 166.774 189.915 166.161 193.343 166.161C197.179 166.161 200.52 166.904 203.368 168.388C206.216 169.874 208.554 171.869 210.384 174.374C212.214 176.879 213.537 179.732 214.35 182.935C215.164 186.139 215.454 189.487 215.222 192.981H182.709C182.883 197.004 183.9 199.92 185.76 201.728ZM202.488 149.362V150.175H198.994V159.404H198.036V150.175H194.557V149.362H202.488ZM204.52 149.362L207.988 158.167L211.442 149.362H212.846V159.404H211.888V150.726H211.861L208.436 159.404H207.539L204.101 150.726H204.074V159.404H203.116V149.362H204.52ZM103.181 241.366C104.029 241.366 104.665 241.178 105.088 240.801C105.512 240.424 105.725 239.81 105.725 238.962C105.725 238.144 105.512 237.552 105.088 237.182C104.665 236.812 104.029 236.628 103.181 236.628H99.1306V241.366H103.181ZM104.502 233.748C105.257 233.748 105.937 233.87 106.542 234.114C107.147 234.357 107.667 234.692 108.099 235.117C108.532 235.541 108.862 236.032 109.09 236.591C109.317 237.15 109.432 237.751 109.432 238.396C109.432 239.387 109.223 240.244 108.806 240.968C108.389 241.691 107.708 242.242 106.763 242.62V242.667C107.219 242.793 107.596 242.987 107.895 243.246C108.194 243.506 108.437 243.813 108.625 244.168C108.814 244.524 108.951 244.912 109.037 245.338C109.124 245.764 109.184 246.19 109.215 246.616C109.231 246.883 109.246 247.199 109.261 247.561C109.278 247.923 109.305 248.294 109.345 248.672C109.384 249.051 109.447 249.408 109.533 249.747C109.619 250.086 109.749 250.375 109.922 250.611H106.221C106.017 250.074 105.891 249.437 105.845 248.696C105.797 247.956 105.727 247.246 105.632 246.567C105.506 245.685 105.24 245.039 104.831 244.629C104.422 244.22 103.756 244.014 102.829 244.014H99.1306V250.611H95.4237V233.748H104.502ZM125.035 233.748V236.86H116.151V240.468H124.305V243.348H116.151V247.499H125.223V250.611H112.444V233.748H125.035ZM137.693 250.475C136.892 250.813 136.083 250.982 135.266 250.982C133.977 250.982 132.819 250.758 131.79 250.31C130.76 249.86 129.892 249.243 129.186 248.456C128.478 247.669 127.935 246.744 127.56 245.682C127.182 244.619 126.993 243.474 126.993 242.247C126.993 240.987 127.183 239.819 127.561 238.741C127.937 237.663 128.481 236.722 129.189 235.919C129.897 235.117 130.766 234.487 131.796 234.031C132.826 233.574 133.984 233.345 135.272 233.345C136.136 233.345 136.974 233.474 137.782 233.734C138.592 233.994 139.322 234.375 139.974 234.878C140.626 235.381 141.164 236.003 141.588 236.742C142.013 237.481 142.272 238.333 142.366 239.293H138.832C138.611 238.348 138.186 237.639 137.558 237.166C136.93 236.693 136.168 236.458 135.272 236.458C134.439 236.458 133.734 236.619 133.151 236.941C132.57 237.264 132.099 237.697 131.737 238.24C131.376 238.784 131.112 239.402 130.947 240.094C130.782 240.786 130.7 241.503 130.7 242.242C130.7 242.951 130.782 243.64 130.947 244.309C131.112 244.978 131.375 245.579 131.736 246.114C132.097 246.65 132.568 247.079 133.149 247.402C133.73 247.725 134.437 247.885 135.268 247.885C136.493 247.885 137.439 247.576 138.105 246.957C138.773 246.337 139.162 245.439 139.272 244.262H135.548V241.49H142.623V250.603H140.263L139.885 248.689C139.225 249.54 138.495 250.136 137.693 250.475ZM145.612 250.611H149.319V233.732H145.612V250.611ZM155.404 246.456C155.609 246.85 155.88 247.169 156.218 247.413C156.555 247.657 156.952 247.838 157.407 247.957C157.863 248.075 158.333 248.133 158.82 248.133C159.149 248.133 159.503 248.106 159.881 248.051C160.259 247.996 160.611 247.889 160.94 247.732C161.27 247.574 161.545 247.358 161.765 247.082C161.985 246.806 162.095 246.456 162.095 246.031C162.095 245.574 161.949 245.205 161.66 244.92C161.369 244.638 160.988 244.402 160.516 244.212C160.046 244.023 159.513 243.858 158.916 243.716C158.32 243.574 157.715 243.417 157.103 243.243C156.479 243.088 155.866 242.895 155.266 242.665C154.669 242.437 154.135 242.14 153.666 241.779C153.194 241.417 152.813 240.964 152.522 240.42C152.232 239.877 152.087 239.22 152.087 238.447C152.087 237.582 152.271 236.829 152.641 236.191C153.009 235.554 153.492 235.023 154.088 234.597C154.685 234.172 155.36 233.857 156.113 233.653C156.866 233.448 157.62 233.345 158.373 233.345C159.252 233.345 160.096 233.444 160.904 233.64C161.712 233.837 162.43 234.156 163.059 234.597C163.686 235.037 164.184 235.6 164.553 236.285C164.922 236.97 165.107 237.801 165.107 238.778H161.524C161.492 238.273 161.386 237.856 161.206 237.525C161.026 237.194 160.787 236.934 160.49 236.745C160.191 236.557 159.85 236.423 159.467 236.344C159.082 236.265 158.663 236.226 158.208 236.226C157.912 236.226 157.614 236.258 157.316 236.32C157.017 236.383 156.748 236.493 156.505 236.651C156.262 236.808 156.062 237.006 155.905 237.242C155.748 237.477 155.67 237.778 155.67 238.139C155.67 238.471 155.732 238.739 155.858 238.943C155.983 239.148 156.23 239.338 156.599 239.511C156.969 239.684 157.479 239.858 158.13 240.031C158.782 240.203 159.635 240.425 160.685 240.693C161 240.756 161.436 240.87 161.992 241.035C162.549 241.201 163.103 241.465 163.652 241.827C164.202 242.19 164.676 242.673 165.078 243.281C165.478 243.887 165.678 244.663 165.678 245.609C165.678 246.381 165.529 247.097 165.23 247.76C164.931 248.421 164.488 248.993 163.899 249.474C163.309 249.954 162.578 250.328 161.706 250.596C160.836 250.864 159.826 250.998 158.679 250.998C157.752 250.998 156.852 250.884 155.981 250.654C155.11 250.426 154.339 250.067 153.672 249.577C153.005 249.088 152.475 248.465 152.081 247.709C151.689 246.953 151.499 246.055 151.516 245.014H155.099C155.099 245.581 155.201 246.062 155.404 246.456ZM166.544 236.86V233.748H180.337V236.86H175.293V250.611H171.587V236.86H166.544ZM194.861 233.748V236.86H185.976V240.468H194.13V243.348H185.976V247.499H195.049V250.611H182.269V233.748H194.861ZM205.302 241.366C206.149 241.366 206.786 241.178 207.21 240.801C207.633 240.424 207.846 239.81 207.846 238.962C207.846 238.144 207.633 237.552 207.21 237.182C206.786 236.812 206.149 236.628 205.302 236.628H201.251V241.366H205.302ZM206.624 233.748C207.377 233.748 208.058 233.87 208.663 234.114C209.269 234.357 209.786 234.692 210.219 235.117C210.652 235.541 210.982 236.032 211.21 236.591C211.438 237.15 211.552 237.751 211.552 238.396C211.552 239.387 211.344 240.244 210.926 240.968C210.509 241.691 209.829 242.242 208.884 242.62V242.667C209.34 242.793 209.718 242.987 210.015 243.246C210.314 243.506 210.558 243.813 210.747 244.168C210.935 244.524 211.073 244.912 211.16 245.338C211.246 245.764 211.304 246.19 211.335 246.616C211.352 246.883 211.367 247.199 211.382 247.561C211.399 247.923 211.425 248.294 211.465 248.672C211.505 249.051 211.568 249.408 211.654 249.747C211.741 250.086 211.869 250.375 212.042 250.611H208.343C208.138 250.074 208.013 249.437 207.965 248.696C207.917 247.956 207.846 247.246 207.753 246.567C207.627 245.685 207.36 245.039 206.952 244.629C206.544 244.22 205.877 244.014 204.949 244.014H201.251V250.611H197.544V233.748H206.624Z" fill="black"/>
</g>
<defs>
<clipPath id="clip0_4_162">
<rect width="224" height="251" fill="white"/>
</clipPath>
</defs>
</svg>
